<svg xmlns="http://www.w3.org/2000/svg" version="1.1" id="Layer_4" x="0" y="0" viewBox="0 0 841.9 841.9" enable-background="new 0 0 841.9 841.9" xml:space="preserve"  font-size="36">
    <g class="bepoint" ng-click="beye.selectStatus(11)">
        <path fill="#A4DEF9" stroke="#000000" stroke-width="2" stroke-miterlimit="10" d="M335.1 54.3c2.8-0.5 11.6 3.4 8-8 -2-6.4-7.1-7.6-9.1-3.9 -2.1 3.9-4.2 2.5-5.4 1.2 -1-4.7-1.8-12.2-2.3-18.4 -5 1.2-10 2.5-14.9 3.8C140 76.7 14.1 234.1 14.1 420.9c0 94.7 32.4 181.9 86.7 251.1 7.5-0.9 14.2-2.2 17-4.2 0.7-1.5 1.2-4.1-3.3-4.4 -4.2-0.3-5.1-5.5-0.1-9.9 9-7.9 9 1.8 10.6 4.1 0.6 0.9 2.4 1 3.5 1 2.1-2.1 8.5-7.6 14.7-13.3C93.6 584 64.1 506.1 64.1 420.9c0-132.8 72.6-248.7 180.2-310.1l-0.3 0.2c0.7-1.4 2.3-4.6-1.5-5.4 -3.9-0.8-4.8-7.2 1.2-9.3 12.5-4.3 5.7 3.9 6.8 6.3 0.3 0.7 2.7 2.7 3.6 2.9l-0.2 0.1c22.4-11.9 46.3-21.5 71.3-28.4 5.4-1.5 10.8-2.9 16.2-4.1 -3.5-5.6-7.2-12.3-8.6-15.8C333.2 56.1 334.1 54.5 335.1 54.3z"/>
        <text transform="matrix(0.3097 -0.9508 0.9508 0.3097 66.6189 316.2276)">
            <tspan x="0"     y="0">P</tspan>
            <tspan x="19.9"  y="-0.1" rotate="3.4">C</tspan>
            <tspan x="44"    y="1.3"  rotate="7.1">R</tspan>
            <tspan x="67.5"  y="4.3"  rotate="10.5">P</tspan>
            <tspan x="87.2"  y="8"    rotate="12.9">i</tspan>
            <tspan x="97.6"  y="10.4" rotate="14.6">-</tspan>
            <tspan x="108.3" y="12.8" rotate="18">W</tspan>
        </text>
    </g>
    <g class="bepoint" ng-click="beye.selectStatus(9)">
        <path fill="#29B9EC" stroke="#000000" stroke-width="2" stroke-miterlimit="10" d="M804.1 488.7c-1.7 0.2-4.1 1.1-2 5.1 1.9 3.7-2 7.3-8.3 5.3 -11.5-3.5-3.2-8.6-2.1-11.2 0.5-1-0.4-2.6-1-3.5 -4.2-0.9-12.3 0.6-18.9 1.7 -30.6 166-175.9 291.7-350.8 291.7 -77.3 0-148.9-24.6-207.4-66.4l0.3 0.3c-1.5-0.4 0.7 2.5 0.7 6.3 0 4-6.4 3.4-10.9-1 -8-8 4.6-8.4 4.6-9.4 -20.9-15.5-40.1-33.2-57.1-52.8 -2.7-3.1-5.4-6.3-8-9.5 -6.2 5.7-12.5 11.2-14.7 13.3 -1.1 0-2.9-0.1-3.5-1 -1.6-2.3-1.6-12-10.6-4.1 -5 4.4-4 9.6 0.1 9.9 4.4 0.4 4 2.9 3.3 4.4 -2.7 2-9.5 3.3-17 4.2 3.7 4.8 7.6 9.4 11.5 14 74.6 86.8 185.2 141.8 308.7 141.8 198.7 0 364-142.4 399.7-330.6C816.3 494.6 809.8 491 804.1 488.7z"/>
        <text transform="matrix(0.9365 -0.3507 0.3507 0.9365 550.2275 794.8135)">P</text>
        <text transform="matrix(0.9213 -0.3888 0.3888 0.9213 570.0073 787.2897)">i</text>
        <text transform="matrix(0.9045 -0.4265 0.4265 0.9045 580.7222 782.8636)">P</text>
        <text transform="matrix(0.8831 -0.4692 0.4692 0.8831 599.9169 773.7321)">r</text>
        <text transform="matrix(0.8607 -0.5092 0.5092 0.8607 614.4258 766.0502)">e</text>
        <text transform="matrix(0.8277 -0.5612 0.5612 0.8277 631.5996 756.015)">D</text>
    </g>
    <g class="bepoint" ng-click="beye.selectStatus(10)">
    <path fill="#D9F1FD" stroke="#000000" stroke-width="2" stroke-miterlimit="10" d="M420.9 14.1c-32.5 0-64.1 3.8-94.5 11 0.5 6.3 1.2 13.7 2.3 18.4 1.1 1.3 3.2 2.7 5.4-1.2 2-3.7 7.1-2.5 9.1 3.9 3.6 11.5-5.3 7.5-8 8 -1.1 0.2-1.9 1.8-2.3 2.8 1.4 3.5 5.1 10.2 8.6 15.8 25.6-5.8 52.2-8.9 79.6-8.9 149 0 276.6 91.3 330.1 221 1.2 0.8 2.8 1 4.4-2 2-3.7 7-2.5 9 3.8 3.6 11.4-9.1 7.2-9.1 10.1 0 0 0 0 0 0 15 38.6 22.3 80.4 22.3 124 0 17-1.2 33.7-3.5 50.1 -0.7 5.1-1.5 10.1-2.5 15.1 6.6-1.1 14.7-2.7 18.9-1.7 0.6 1 1.5 2.5 1 3.5 -1.2 2.6-9.4 7.6 2.1 11.2 6.4 2 10.3-1.6 8.3-5.3 -2-4 0.3-4.9 2-5.1 5.7 2.3 12.2 5.9 16.6 8.4 0.8-4.2 1.5-8.4 2.2-12.6 3.2-20.7 4.9-41.9 4.9-63.6C827.8 196.3 645.6 14.1 420.9 14.1z"/>
    <text transform="matrix(0.7688 0.6395 -0.6395 0.7688 649.3554 130.5301)">
        <tspan x="0"     y="0">P</tspan>
        <tspan x="19.9"  y="-0.1" rotate="3.4">C</tspan>
        <tspan x="44"    y="1.3"  rotate="7.1">R</tspan>
        <tspan x="67.5"  y="4.3"  rotate="10.5">P</tspan>
        <tspan x="87.2"  y="8"    rotate="12.9">i</tspan>
        <tspan x="97.6"  y="10.4" rotate="14.6">-</tspan>
        <tspan x="108.4" y="12.9" rotate="17.5">D</tspan>
        <tspan x="133.9" y="21.1" rotate="21.3">B</tspan>
    </text>
    </g>
    <g class="bepoint" ng-click="beye.selectStatus(8)">
        <path fill="#35A3D9" stroke="#000000" stroke-width="2" stroke-miterlimit="10" d="M755.3 296.9c0-3 10.7-0.1 9.7-7.5 -0.4-3.2-3.9-11.1-8.4-7.8 -1.5 1.1-2 4.2-4.3 4 -2.5-0.2-4.1-7.2-5-9.2 -10.6-23.9-23.8-46.6-39.4-67.6 -31-41.8-71.1-76.7-116.8-101.6 -103.9-56.5-232.7-57.1-337.2-1.6 -4.3-2.1 0.1-11.2-3.8-11 -4 0.2-12.7 3.4-10.4 8.7 1.5 3.5 7.1 3.3 4.6 7.6 -94.8 54.1-161.1 151-176.6 259.1C51.5 482.7 90.9 598.7 173 677.7c11.1 10.7 22.9 20.7 35.3 29.8 0 2.5-10.8 0.8-6.3 7.4 2.1 3 6.8 6.7 10.8 5.5 3.6-1.1 1.1-7.3 0.8-9.1 95 67.9 220.7 84.9 330.3 44.7 92.7-34.1 168.7-107 206.6-198.3C784.5 475.9 787.5 379.9 755.3 296.9zM726.8 426.6c0 0.4 0 0.5 0 0.6 0 0 0 0 0 0C726.8 427.1 726.8 426.8 726.8 426.6c-1.2 67.1-24.9 136.4-68.8 187.7 0.3-0.3 0.5-0.7 0.8-1 -0.6 3.6 5.8 2.1 7.5 2.9 5 2.4-0.2 9.4-2.6 11.4 -6.1 5.2-6.2-6.7-12-5.9 0.3-0.4 0.6-0.7 0.9-1.1 -58.6 70.6-152 109.2-243 105.9C309 723 215 668.4 161.6 583.2c-54.4-86.7-61.4-198.2-18.2-291 42.1-90.6 128.2-156.5 226.7-173 89.4-15 182.6 11.1 251.1 70.5C689.4 248.8 728.4 336.4 726.8 426.6 726.8 426.4 726.8 426.3 726.8 426.6z"/>
        <text transform="matrix(0.5392 0.8422 -0.8422 0.5392 123.917 595.8296)">V</text>
        <text transform="matrix(0.5852 0.8109 -0.8109 0.5852 138.0552 617.5259)">-</text>
        <text transform="matrix(0.632 0.7749 -0.7749 0.632 145.1807 627.7622)">D</text>
        <text transform="matrix(0.3952 0.4286 -0.4286 0.3952 176.1636 637.854)">2</text>
        <text transform="matrix(0.7215 0.6924 -0.6924 0.7215 172.4175 659.7856)">O</text>
        <text transform="matrix(0.7742 0.633 -0.633 0.7742 193.3985 679.7837)">C</text>
        <text transform="matrix(0.82 0.5724 -0.5724 0.82 213.5743 696.2417)">K</text>
    </g>
    <g class="bepoint" ng-click="beye.selectStatus(7)">
        <path fill="#498EC8" stroke="#000000" stroke-width="2" stroke-miterlimit="10" d="M726.8 416.6c-1.8-127-84.8-242.5-204.7-284.5 -121.2-42.5-259.6-2.6-339.9 97.5 -47.9 59.7-71.8 136.6-66.4 213 2.1-0.8 22-10.8 18.4-1.7 -2.3 5.7-1.7 8.8 5.6 8.9 13.3 0.1 2.1-8.3 5.5-11.9 3.7-4.1 17.2 3.5 21.8 4.8 -8.9-102.6 47.1-202.7 138.9-249.3 95.1-48.2 213.4-30.6 290.7 42.8 5.2 5 10.3 10.2 15.1 15.6 9 10.1 3.1-2.4 11.1-1.7 3.1 0.2 11.2 9.5 6.1 10.9 -3.4 1-6.4-0.7-6.9 3.2 26.1 33.5 43.7 73.3 50.5 115.3 1.8 10.7 2.8 21.6 3.2 32.4 0.1 3.7-1.1 8.6 2.5 10 2.7 1.1 19.8 8.7 19.6 2.7 -0.1-4-5-8.1 2.4-9.5 4-0.8 12.4 0.6 9.8 6.4 -1.3 3-3.3 4.6-0.5 7.5 4.3 0.2 8.6 0.1 12.9-0.6C729.4 427.2 726.9 422.7 726.8 416.6 726.8 410.8 726.9 420.2 726.8 416.6z"/>
        <text transform="matrix(0.9636 -0.2673 0.2673 0.9636 334.7443 167.3385)">
            <tspan x="0"     y="0">M</tspan>
            <tspan x="30"    y="0.3"  rotate="4.3">-</tspan>
            <tspan x="40.8"  y="0.9"  rotate="8.1">V</tspan>
            <tspan x="64.5"  y="4.2"  rotate="13.6">O</tspan>
            <tspan x="90.5"  y="10.5" rotate="19">R</tspan>
            <tspan x="112.7" y="18.1" rotate="23.5">F</tspan>
            <tspan x="130"   y="25.6" rotate="27.6">F</tspan>
            <tspan x="146.8" y="34.5" rotate="30.8">I</tspan>
            <tspan x="156.3" y="39.9" rotate="34">P</tspan>
        </text>
    </g>
    <g class="bepoint" ng-click="beye.selectStatus(6)">
        <path fill="#5887C3" stroke="#000000" stroke-width="2" stroke-miterlimit="10" d="M726.8 427.4c-2.6 0.7-20.6 4.8-18.9-1.7 0.9-3.6 5.7-7.8-0.4-9.9 -2.9-1-7-1.5-9.8 0.3 -4.3 2.8 0.1 5.2 0.2 8.5 0.2 6-18.9-2.4-21.9-3.6 0 71.3-30.5 140.4-83.2 188.4 -6.1 5.6-12.5 10.9-19.2 15.9 -3.3 8.4 3.7 2.1 4.2 9.3 0.2 3.9-7.9 13-11.6 8.1 -2.7-3.6-1.2-7.3-7.2-7.3 -10.9 7-22.3 13.2-34.2 18.5 -76.9 34.9-168.1 27.7-238.9-16.7 -52.1-32.7-90.6-83.5-108.5-141.7 -1.6-4.5-4.5-15.6-5.7-21 -1.3-6.3-2.2-12.6-3.4-18.8 -0.5-3.5 0.1-12.3-3.3-13.5 -3.9-1.5-16.5-7.7-19.8-4.1 -3.2 3.5 7.1 8.7-1.9 11.5 -5.8 1.8-12.7-0.2-9.7-6.9 3.2-7.4-4.8-5.5-9.4-3.5 -5 2.1-8.5 1.7-8 7.6 0.3 3.9 0.7 7.8 1.2 11.7 2 16.5 5.4 32.9 10 48.8 8.8 29.9 22.1 58.4 39.5 84.3 48.9 72.7 128.4 122.1 215.4 133.1 101 12.8 203.7-26.6 270.3-103.7 -0.3 0.4-0.6 0.7-0.9 1.1 5.6-0.8 5.9 10.7 11.7 6.1 2.6-2 7.6-8.5 3.3-11.4 -1.6-1.1-8.5 0.6-7.9-3.2 -0.3 0.3-0.5 0.7-0.8 1C701.1 561.5 725.1 495.4 726.8 427.4 720.7 429 726.8 427.6 726.8 427.4z"/>
        <text transform="matrix(0.9776 0.2104 -0.2104 0.9776 347.1512 705.27)">V</text>
        <text transform="matrix(0.9931 0.1173 -0.1173 0.9931 372.9682 710.8356)">O</text>
        <text transform="matrix(0.9997 2.359727e-02 -2.359727e-02 0.9997 401.9913 714.1221)">R</text>
        <text transform="matrix(0.9984 -5.579279e-02 5.579279e-02 0.9984 427.4734 714.5892)">F</text>
        <text transform="matrix(0.992 -0.1263 0.1263 0.992 448.0976 713.4052)">F</text>
        <text transform="matrix(0.9833 -0.1821 0.1821 0.9833 468.3994 710.6821)">I</text>
        <text transform="matrix(0.9711 -0.2385 0.2385 0.9711 480.6635 708.5213)">P</text>
    </g>
    <g class="bepoint" ng-click="beye.selectStatus(5)">
        <path fill="#0E98BA" stroke="#000000" stroke-width="2" stroke-miterlimit="10" d="M573.5 625.2c112.8-84.3 135.3-249.9 48.5-361.1 0-6.4 13.1 0.6 6.4-10 -4.9-7.7-6.9-2.5-10.4 1.2 -2.8 3-12.3-10.1-14.3-12.2 -19.7-20.2-42.7-37.1-67.9-49.9 -50.3-25.4-108.6-33.3-163.9-22.5C273.5 190 193.5 268.1 172 365.9c-21.9 99.5 19 204.9 102.2 263.5 41 28.9 90.3 45.2 140.5 46.4 31.2 0.8 62.4-4.2 91.8-14.6 13.8-4.9 27.3-11.1 40-18.3 3.6-2 9.9-8.1 14.1-7.4 4.9 0.8 3 4.9 6 7.7 4.1 3.8 12.3-5.4 10.9-9.7 -1-2.8-1.8-2.6-3.9-3.3C571.8 629.6 573.2 626.1 573.5 625.2 573.5 625.2 573.3 625.7 573.5 625.2zM554.2 575.3c-61 52.7-149.7 64.3-222.1 29.3 -76-36.7-122-118.8-114.2-202.8 -3.3-0.1-4.6 3.4-7.7 4.4 -5.4 1.8-5.9-7.2-5.4-10.2 1.3-7.1 9.6-0.3 14.1-3.1C233 291.2 323.8 214.6 426 217.1c87 2.1 166.2 62 190.5 145.9C639 439.1 614.3 523.4 554.2 575.3 553.2 576.1 554.6 575 554.2 575.3z"/>
        <text transform="matrix(0.6901 0.7238 -0.7238 0.6901 567.0958 260.5652)">M</text>
        <text transform="matrix(0.6028 0.7979 -0.7979 0.6028 587.3232 282.0389)">o</text>
        <text transform="matrix(0.5216 0.8532 -0.8532 0.5216 599.7189 298.289)">d</text>
        <text transform="matrix(0.4384 0.8988 -0.8988 0.4384 611.1218 316.9725)">L</text>
        <text transform="matrix(0.3762 0.9266 -0.9266 0.3762 619.4159 334.2531)">i</text>
        <text transform="matrix(0.3067 0.9518 -0.9518 0.3067 623.4501 343.523)">n</text>
        <text transform="matrix(0.2135 0.977 -0.977 0.2135 630.0854 364.0123)">k</text>
        <text transform="matrix(8.168674e-02 0.5772 -0.5772 8.168674e-02 651.6014 381.7333)">+</text>
    </g>
    <g class="bepoint" ng-click="beye.selectStatus(4)">
        <path fill="#27AB87" stroke="#000000" stroke-width="2" stroke-miterlimit="10" d="M565.1 276.7c-79.6-79.6-208.8-79.6-288.4 0 -32.8 32.8-52.1 74-57.9 116.6l0.1-0.6c-0.7 0.7-4.1 1.5-4.8 1.4 -2.7-0.3-9.5-6.4-9.5 5 0 6.3 4.3 8.8 7.1 6.1 2.8-2.7 5.5-4.6 6.2-3.3l0-0.2c-5.5 58.4 14.1 118.7 58.8 163.4 79.6 79.6 208.8 79.6 288.4 0C644.8 485.5 644.8 356.4 565.1 276.7zM572.3 458.6c-0.7-0.4-2.4 0.1-3.3 0.5l0 0c-6.4 25.1-19.3 48.8-38.6 68.6 0 0 0 0 0 0 -0.4 0.5-1.2 1.2-2.4 2.4l0 0c0 0-0.1 0.1-0.1 0.1 -2.3 2.2-4.6 4.4-7 6.4 0 0-0.1 0.1-0.1 0.1 -0.7 0.6-1.4 1.2-2.2 1.8 -0.1 0.1-0.3 0.2-0.4 0.4 -0.7 0.6-1.4 1.2-2.2 1.8 -0.1 0.1-0.3 0.2-0.4 0.3 -4.1 3.2-8.3 6.2-12.6 9 -0.1 0-0.1 0.1-0.2 0.1 -0.8 0.5-1.7 1.1-2.6 1.6 0 0 0 0-0.1 0 -18.7 11.4-39.4 18.4-60.5 21l0.1 0c-1.4 0.8-2.9 3.3-0.2 6 2.8 2.8 0.3 7.1-6 7.2 -11.4 0.1-5.4-6.8-5.1-9.5 0.1-0.8-0.8-1.9-1.5-2.5l0.1 0.1c0 0 0 0 0 0 -1.3 0-2.5 0-3.8 0 -0.1 0-0.2-0.1-0.3-0.1 -1.2 0-2.3 0-3.5 0 -0.1 0-0.3 0-0.4 0 -1.1 0-2.2 0-3.3-0.1 -0.2 0-0.4 0-0.6 0 -1.1 0-2.2-0.1-3.2-0.2 -0.2 0-0.4 0-0.6 0 -1-0.1-2.1-0.1-3.1-0.2 -0.2 0-0.5 0-0.7-0.1 -1-0.1-2.1-0.2-3.1-0.3 -0.2 0-0.5-0.1-0.7-0.1 -1-0.1-2-0.2-3.1-0.4 -0.3 0-0.5-0.1-0.8-0.1 -1-0.1-2-0.3-3.1-0.5 -0.2 0-0.5-0.1-0.7-0.1 -1-0.2-2.1-0.3-3.1-0.5 -0.2 0-0.5-0.1-0.7-0.1 -1.1-0.2-2.1-0.4-3.2-0.6 -0.2 0-0.4-0.1-0.6-0.1 -1.1-0.2-2.2-0.5-3.3-0.8 -0.1 0-0.3-0.1-0.4-0.1 -1.2-0.3-2.4-0.6-3.6-0.9 0 0 0 0-0.1 0 -5-1.3-9.9-2.9-14.7-4.8 -0.2-0.1-0.5-0.2-0.7-0.3 -1-0.4-1.9-0.7-2.8-1.1 -0.3-0.1-0.7-0.3-1-0.4 -0.8-0.3-1.7-0.7-2.5-1.1 -0.4-0.2-0.8-0.4-1.2-0.5 -0.8-0.3-1.5-0.7-2.3-1 -0.4-0.2-0.9-0.4-1.3-0.6 -0.7-0.3-1.4-0.7-2.1-1 -0.5-0.2-0.9-0.5-1.4-0.7 -0.7-0.4-1.4-0.7-2-1.1 -0.5-0.3-1-0.5-1.4-0.8 -0.7-0.4-1.3-0.7-2-1.1 -0.5-0.3-1-0.6-1.5-0.8 -0.6-0.4-1.3-0.7-1.9-1.1 -0.5-0.3-1-0.6-1.5-0.9 -0.6-0.4-1.2-0.8-1.8-1.2 -0.5-0.3-1-0.6-1.5-0.9 -0.6-0.4-1.2-0.8-1.8-1.2 -0.5-0.3-1-0.7-1.5-1 -0.6-0.4-1.2-0.8-1.8-1.2 -0.5-0.3-1-0.7-1.4-1 -0.6-0.4-1.2-0.9-1.8-1.3 -0.5-0.4-0.9-0.7-1.4-1.1 -0.6-0.4-1.2-0.9-1.7-1.4 -0.5-0.4-0.9-0.7-1.4-1.1 -0.6-0.5-1.2-1-1.7-1.4 -0.4-0.4-0.9-0.7-1.3-1.1 -0.6-0.5-1.2-1-1.8-1.6 -0.4-0.4-0.8-0.7-1.2-1.1 -0.7-0.6-1.3-1.2-2-1.8 -0.3-0.3-0.7-0.6-1-0.9 -1-0.9-1.9-1.9-2.9-2.8 -0.9-0.9-1.8-1.9-2.7-2.8 -0.3-0.3-0.6-0.6-0.8-0.9 -0.6-0.6-1.2-1.3-1.8-1.9 -0.3-0.4-0.7-0.8-1-1.1 -0.5-0.6-1-1.2-1.5-1.7 -0.4-0.4-0.7-0.8-1.1-1.2 -0.5-0.6-1-1.1-1.4-1.7 -0.4-0.4-0.7-0.9-1-1.3 -0.4-0.6-0.9-1.1-1.3-1.7 -0.4-0.5-0.7-0.9-1-1.4 -0.4-0.6-0.8-1.1-1.3-1.7 -0.3-0.5-0.7-0.9-1-1.4 -0.4-0.6-0.8-1.1-1.2-1.7 -0.3-0.5-0.7-1-1-1.5 -0.4-0.6-0.8-1.1-1.1-1.7 -0.3-0.5-0.6-1-1-1.5 -0.4-0.6-0.7-1.1-1.1-1.7 -0.3-0.5-0.6-1-0.9-1.5 -0.3-0.6-0.7-1.1-1-1.7 -0.3-0.5-0.6-1-0.9-1.6 -0.3-0.6-0.6-1.1-1-1.7 -0.3-0.5-0.6-1.1-0.9-1.6 -0.3-0.5-0.6-1.1-0.9-1.6 -0.3-0.5-0.6-1.1-0.9-1.7 -0.3-0.5-0.6-1.1-0.8-1.6 -0.3-0.6-0.6-1.1-0.8-1.7 -0.3-0.5-0.5-1.1-0.8-1.6 -0.3-0.6-0.5-1.2-0.8-1.7 -0.2-0.5-0.5-1.1-0.7-1.6 -0.3-0.6-0.5-1.2-0.8-1.8 -0.2-0.5-0.5-1.1-0.7-1.6 -0.2-0.6-0.5-1.2-0.7-1.8 -0.2-0.5-0.4-1.1-0.6-1.6 -0.2-0.6-0.5-1.2-0.7-1.8 -0.2-0.5-0.4-1.1-0.6-1.6 -0.2-0.6-0.4-1.3-0.7-1.9 -0.2-0.5-0.4-1-0.5-1.6 -0.2-0.6-0.4-1.3-0.6-1.9 -0.2-0.5-0.3-1-0.5-1.5 -0.2-0.7-0.4-1.3-0.6-2 -0.1-0.5-0.3-1-0.4-1.5 -0.2-0.7-0.4-1.4-0.5-2 -0.1-0.5-0.3-1-0.4-1.5 -0.2-0.7-0.3-1.4-0.5-2.1 -0.1-0.5-0.2-1-0.3-1.4 -0.2-0.7-0.3-1.4-0.5-2.1 -0.1-0.5-0.2-0.9-0.3-1.4 -0.1-0.7-0.3-1.5-0.4-2.2 -0.1-0.4-0.2-0.9-0.2-1.3 -0.1-0.7-0.3-1.5-0.4-2.2 -0.1-0.4-0.1-0.9-0.2-1.3 -0.1-0.8-0.2-1.5-0.3-2.3 -0.1-0.4-0.1-0.8-0.2-1.2 -0.1-0.8-0.2-1.6-0.3-2.4 0-0.4-0.1-0.8-0.1-1.2 -0.1-0.8-0.2-1.6-0.2-2.5 0-0.4-0.1-0.7-0.1-1.1 -0.1-0.8-0.1-1.7-0.2-2.5 0-0.3 0-0.7-0.1-1 -0.1-0.9-0.1-1.8-0.1-2.6 0-0.3 0-0.6 0-0.9 0-0.9-0.1-1.8-0.1-2.7 0-0.3 0-0.5 0-0.8 0-0.9 0-1.9 0-2.8 0-0.2 0-0.4 0-0.7 0-1 0-2 0-3 0-0.2 0-0.3 0-0.5 0-1 0.1-2.1 0.1-3.1 0-0.1 0-0.2 0-0.3 0.1-1.1 0.1-2.2 0.2-3.3 0 0 0-0.1 0-0.1 2.6-34.1 16.6-67.5 41.9-94.1 0.6-0.7 1.3-1.3 1.9-2 0.1-0.1 0.1-0.1 0.2-0.2 0.1-0.1 0.2-0.2 0.3-0.3 59.7-59.7 156.6-59.7 216.3 0 1.1 1.1 2.1 2.1 3.1 3.2 0.3 0.3 0.6 0.7 0.9 1 0.7 0.8 1.4 1.5 2.1 2.3 0.3 0.4 0.7 0.8 1 1.1 0.7 0.8 1.3 1.5 2 2.3 0.3 0.4 0.6 0.7 0.9 1.1 0.8 0.9 1.5 1.9 2.3 2.8 0.2 0.2 0.3 0.4 0.5 0.6 0.9 1.2 1.8 2.3 2.6 3.5 0.2 0.3 0.4 0.5 0.6 0.8 0.7 0.9 1.3 1.9 2 2.8 0.3 0.4 0.5 0.7 0.8 1.1 0.6 0.9 1.1 1.7 1.7 2.6 0.2 0.4 0.5 0.7 0.7 1.1 0.6 1 1.2 1.9 1.8 2.9 0.2 0.3 0.1 0.5 0.3 0.8 0.8 1.3 1 2.6 2 3.8 0 0 0 0 0 0 1 1.3 1.6 2.5 2.2 3.8 0.2 0.3 0.4 0.6 0.5 0.9 0.5 1 1.1 2 1.6 3 0.2 0.3 0.3 0.6 0.5 1 0.5 1.1 1 2.1 1.5 3.2 0.1 0.2 0.2 0.5 0.3 0.7 1.2 2.7 2.3 5.4 3.3 8.2 0 0.1 0.1 0.2 0.1 0.3 0.5 1.3 0.9 2.5 1.4 3.8 0.1 0.2 0.1 0.4 0.2 0.6 0.4 1.2 0.8 2.5 1.2 3.7 0 0.2 0.1 0.3 0.1 0.5 1.3 4.3 2.4 8.6 3.3 13 0 0 0 0.1 0 0.1 0.3 1.4 0.6 2.9 0.8 4.3 0 0 0 0.1 0 0.1 3.2 17.7 3.2 35.8 0.1 53.6 0.2 1.5 3.4 3.2 7 1.7 3.6-1.6 6.7 2.4 4.5 8.2C578.9 467.9 574.7 459.9 572.3 458.6z"/>
        <text transform="matrix(0.8882 -0.4594 0.4594 0.8882 497.4443 596.9691)">
            <tspan x="0"     y="0">G</tspan>
            <tspan x="28.3"  y="-0.2"  rotate="-8.4">U</tspan>
            <tspan x="55.2"  y="-4.6"  rotate="-14.5">I</tspan>
            <tspan x="67.7"  y="-7.7"  rotate="-19.6">L</tspan>
            <tspan x="88.3"  y="-14.9" rotate="-27.3">D</tspan>
            <tspan x="113.9" y="-28.7" rotate="-33.5">i</tspan>
            <tspan x="123.9" y="-35.3" rotate="-37.6">f</tspan>
            <tspan x="136.5" y="-44.8" rotate="-43.1">y</tspan>
        </text>
    </g>
    <g class="bepoint" ng-click="beye.selectStatus(3)">
        <path fill="#268C43" stroke="#000000" stroke-width="2" stroke-miterlimit="10" d="M578.6 449.1c-3.6 1.5-6.8-0.2-7-1.7l-0.1 0.3c8.4-47.5-5.8-98.2-42.4-134.9 -59.7-59.7-156.6-59.7-216.3 0 -0.1 0.1-0.2 0.2-0.3 0.3 -1.3 1.3-2.6 2.7-3.8 4 0.1 0.1 8.1 3.5 16 10 0 1-0.1 2.1-0.7 2.6 -2.1 1.6-11.2 2.3-3.2 10.3 4.5 4.5 9.3 3.2 9.3-0.8 0-3.9 2.1-4 3.6-3.5 3.9 4.4 7.4 9.5 10 15.4 0.1 0.2 0.7 2.4 0.7 2.6l0.1-0.1c2-2.3 4.1-4.5 6.3-6.6 0.3-0.2 0.5-0.5 0.8-0.7 0.3-0.3 0.7-0.6 1-1 0.4-0.4 0.8-0.7 1.2-1 0.2-0.2 0.4-0.4 0.7-0.6 0.5-0.4 1-0.8 1.4-1.2 0.1-0.1 0.3-0.2 0.4-0.3 0.5-0.5 1.1-0.9 1.7-1.3 0.1-0.1 0.2-0.1 0.2-0.2 0.6-0.5 1.2-0.9 1.8-1.4 0 0 0.1 0 0.1-0.1 4-3 8.1-5.6 12.3-7.9 0 0 0.1 0 0.1 0 0.7-0.4 1.3-0.7 2-1.1 0.1 0 0.2-0.1 0.3-0.1 0.6-0.3 1.2-0.6 1.8-0.9 0.2-0.1 0.3-0.2 0.5-0.2 0.5-0.3 1.1-0.5 1.6-0.8 0.3-0.1 0.5-0.2 0.8-0.4 0.5-0.2 0.9-0.4 1.4-0.6 0.4-0.2 0.7-0.3 1.1-0.5 0.4-0.1 0.7-0.3 1.1-0.4 0.5-0.2 0.9-0.4 1.4-0.5 0.3-0.1 0.5-0.2 0.8-0.3 0.6-0.2 1.1-0.4 1.7-0.6 0.2-0.1 0.4-0.1 0.5-0.2 0.6-0.2 1.3-0.4 2-0.7 0.1 0 0.2-0.1 0.3-0.1 0.7-0.2 1.4-0.5 2.2-0.7 0 0 0.1 0 0.1 0 4.6-1.4 9.4-2.4 14.3-3.1 0 0 0.1 0 0.1 0 0.8-0.1 1.5-0.2 2.3-0.3 0.1 0 0.2 0 0.3 0 0.7-0.1 1.4-0.2 2.1-0.2 0.2 0 0.3 0 0.5 0 0.6-0.1 1.3-0.1 1.9-0.2 0.3 0 0.6 0 0.8-0.1 0.5 0 1.1-0.1 1.6-0.1 0.4 0 0.9 0 1.3-0.1 0.4 0 0.8 0 1.2 0 2 0 4 0 5.9 0 0.3 0 0.5 0 0.8 0 1.1 0 2.2 0.1 3.3 0.2 0.2 0 0.4 0 0.6 0.1 0.9 0.1 1.8 0.2 2.7 0.3 0.3 0 0.6 0.1 0.9 0.1 1 0.1 2 0.2 3 0.4 0.1 0 0.2 0 0.3 0l-0.1 0c1.5-0.3 3.3-2.3 1.4-5.7 -1.9-3.5 1.8-6.9 7.8-5.1 10.9 3.2 3.2 8.1 2.1 10.6 -0.3 0.7-0.6 1.8-0.1 2.6l-0.1 0c0.1 0 0.1 0 0.2 0 1.2 0.3 2.4 0.7 3.5 1 0.2 0.1 0.4 0.1 0.6 0.2 1.2 0.4 2.4 0.8 3.6 1.2 0.1 0 0.2 0.1 0.3 0.1 12.6 4.5 24.4 11.6 34.8 21.2 0.1 0.1 0.1 0.1 0.2 0.2 0.9 0.8 1.8 1.7 2.6 2.5 0.1 0.1 0.1 0.1 0.2 0.2 1 1 2.1 2.1 3.1 3.2 0.4 0.5 0.9 1 1.3 1.5 0.6 0.6 1.1 1.3 1.7 2 0.5 0.6 1 1.2 1.5 1.8 0.5 0.6 0.9 1.1 1.3 1.7 0.5 0.7 1 1.3 1.5 2 0.4 0.5 0.7 1 1.1 1.6 0.5 0.7 1 1.4 1.5 2.2 0.3 0.4 0.5 0.8 0.8 1.2 1 1.5 1.9 3 2.8 4.6 0.3 0.5 0.6 1 0.9 1.6 0.4 0.7 0.7 1.4 1.1 2.1 0.3 0.7 0.7 1.3 1 2 0.3 0.6 0.6 1.3 0.9 1.9 0.4 0.8 0.7 1.5 1 2.3 0.2 0.6 0.5 1.2 0.7 1.7 0.4 0.9 0.7 1.8 1.1 2.7 0.2 0.5 0.4 0.9 0.5 1.4 0.4 1.2 0.8 2.3 1.2 3.5 0.1 0.2 0.2 0.5 0.2 0.7 1.4 4.4 2.4 9 3.2 13.6 0 0.2 0.1 0.5 0.1 0.7 0.2 1.2 0.4 2.5 0.5 3.7 0.1 0.4 0.1 0.9 0.1 1.3 0.1 1.1 0.2 2.1 0.3 3.2 0 0.5 0.1 1.1 0.1 1.6 0.1 1 0.1 1.9 0.1 2.9 0 0.6 0 1.2 0 1.8 0 0.4 0 0.9 0 1.3 0 2.4-0.1 4.8-0.3 7.2 0 0 0 0 0 0.1 -0.9 13.1-4.3 25.5-9.7 36.7 0 0 0 0.1-0.1 0.1 -0.6 1.4-1.3 2.7-2 4 -0.1 0.1-0.1 0.3-0.2 0.4 -0.7 1.3-1.4 2.5-2.1 3.7 -0.1 0.2-0.2 0.4-0.3 0.6 -0.7 1.2-1.5 2.4-2.3 3.6 -0.1 0.2-0.2 0.4-0.3 0.5 -0.8 1.2-1.7 2.5-2.6 3.7 -0.1 0.1-0.2 0.2-0.2 0.3 -1 1.3-2 2.6-3 3.8 0 0 0 0 0 0 -1.1 1.3-2.2 2.6-3.3 3.8 0.1 0.4 0.7 2.2 0.8 2.4 2.5 5.9 6.1 11 10 15.4 1.5 0.4 3.5 0.3 3.6-3.5 0-4 4.9-5.2 9.3-0.8 8 8-1.1 8.6-3.2 10.3 -0.6 0.5-0.8 1.6-0.7 2.6 7.9 6.5 15.8 10.3 15.8 10.3l-0.8 0.9c0 0-0.2 0.2-0.6 0.6 19.4-19.9 32.2-43.7 38.7-68.8l0 0.2c0.9-0.4 2.6-0.9 3.3-0.5 2.4 1.3 6.6 9.4 10.7-1.2C585.3 451.5 582.2 447.6 578.6 449.1z"/>
        <text transform="matrix(0.9294 0.369 -0.369 0.9294 458.5281 311.5636)">
            <tspan x="0"    y="0">i</tspan>
            <tspan x="9.5"  y="-0.4" rotate="7">L</tspan>
            <tspan x="27.4" y="1.6"  rotate="16.3">o</tspan>
            <tspan x="46.2" y="6.9"  rotate="25.9">o</tspan>
            <tspan x="63.9" y="15.2" rotate="35.9">p</tspan>
            <tspan x="80.9" y="27.6" rotate="45.1">s</tspan>
        </text>
    </g>
    <g class="bepoint" ng-click="beye.selectStatus(2)">
        <path fill="#72BC78" stroke="#000000" stroke-width="2" stroke-miterlimit="10" d="M516 515.9c0-1 0.1-2.1 0.7-2.6 2.1-1.6 11.2-2.3 3.2-10.3 -4.5-4.5-9.3-3.2-9.3 0.8 0 3.9-2.1 4-3.6 3.5 -3.9-4.4-7.4-9.5-10-15.4 -0.1-0.2-0.6-2-0.8-2.4 -3 3.3-6.3 6.4-9.7 9.3 0 0-0.1 0.1-0.1 0.1 -0.6 0.5-1.2 1-1.8 1.5 -0.1 0.1-0.2 0.2-0.3 0.2 -0.5 0.4-1.1 0.8-1.6 1.3 -0.2 0.1-0.3 0.2-0.5 0.4 -0.5 0.4-1 0.7-1.5 1.1 -0.2 0.2-0.4 0.3-0.6 0.5 -0.4 0.3-0.9 0.6-1.3 0.9 -0.2 0.2-0.5 0.3-0.7 0.5 -0.4 0.3-0.8 0.6-1.3 0.8 -0.3 0.2-0.6 0.4-0.8 0.6 -0.4 0.3-0.8 0.5-1.2 0.8 -0.3 0.2-0.6 0.4-0.9 0.6 -0.4 0.3-0.9 0.5-1.3 0.8 -0.3 0.2-0.6 0.3-0.8 0.5 -0.5 0.3-1 0.6-1.5 0.8 -0.2 0.1-0.4 0.3-0.7 0.4 -0.6 0.3-1.2 0.6-1.8 0.9 -0.1 0.1-0.2 0.1-0.4 0.2 -12.1 6.2-25.5 10.1-39.8 11.1 0 0-0.1 0-0.1 0 -0.8 0-1.5 0.1-2.3 0.1 -0.1 0-0.2 0-0.3 0 -0.7 0-1.4 0.1-2.1 0.1 -0.1 0-0.3 0-0.4 0 -0.6 0-1.1 0-1.7 0 -0.1 0-0.2 0-0.3 0 -1.1 0-2.3 0-3.4-0.1 -0.4 0-0.8 0-1.1 0 -1.1-0.1-2.2-0.1-3.2-0.2 -0.4 0-0.9-0.1-1.3-0.1 -0.9-0.1-1.8-0.2-2.7-0.3 -0.6-0.1-1.2-0.1-1.8-0.2 -0.7-0.1-1.4-0.2-2.1-0.3 -0.6-0.1-1.2-0.2-1.8-0.3 -0.8-0.1-1.7-0.3-2.5-0.5 -0.5-0.1-1.1-0.2-1.6-0.3 -0.9-0.2-1.8-0.4-2.8-0.6 -0.5-0.1-1-0.2-1.4-0.4 -0.7-0.2-1.5-0.4-2.2-0.6 -0.5-0.1-0.9-0.3-1.4-0.4 -0.9-0.3-1.9-0.6-2.8-0.9 -0.3-0.1-0.7-0.2-1-0.3 -1.1-0.4-2.2-0.8-3.2-1.2 -0.2-0.1-0.3-0.1-0.5-0.2 -8.5-3.3-16.7-7.9-24.3-13.6l0 0c-1.5-0.4-4.4 0-4.4 3.9 0 4-4.9 5.2-9.3 0.8 -8-8 1.1-8.6 3.2-10.3 0.6-0.5 0.7-1.9 0.7-2.9l0.1 0.1c0 0 0 0 0 0 -0.3-0.3-0.5-0.5-0.8-0.8 -0.1-0.1-0.3-0.3-0.4-0.5 -0.9-0.9-1.8-1.8-2.6-2.7 -0.3-0.3-0.6-0.6-0.9-1 -0.8-0.9-1.6-1.8-2.3-2.7 -0.3-0.4-0.6-0.8-1-1.2 -0.7-0.9-1.4-1.7-2.1-2.6 -0.3-0.5-0.7-0.9-1-1.4 -0.6-0.9-1.2-1.7-1.8-2.6 -0.3-0.5-0.7-1-1-1.5 -0.6-0.9-1.1-1.8-1.7-2.6 -0.3-0.5-0.6-1-0.9-1.5 -0.6-0.9-1.1-1.9-1.6-2.8 -0.2-0.4-0.5-0.9-0.7-1.3 -0.5-1-1.1-2.1-1.6-3.1 -0.2-0.3-0.3-0.7-0.5-1.1 -0.5-1.2-1.1-2.3-1.6-3.5 -0.1-0.2-0.2-0.4-0.3-0.6 -5.1-12.1-8.2-25.4-8.2-39.4 0-0.5-0.3-1.1-0.3-1.6 0 0 0-0.1 0-0.1 1-16.4 4.7-31.8 11.9-45.4 0 0 0.2-0.1 0.2-0.1 0.7-1.4 1.5-2.7 2.3-4.1 0-0.1 0.1-0.2 0.2-0.2 0.8-1.3 1.6-2.6 2.4-3.9 0-0.1 0.1-0.2 0.2-0.2 0.9-1.3 1.7-2.6 2.6-3.8 0 0 0.1-0.1 0.1-0.1 1.9-2.6 3.9-5.2 6.1-7.6l-0.1 0.1c-0.1-0.2-0.7-2.4-0.7-2.6 -2.5-5.9-6.1-11-10-15.4 -1.5-0.4-3.5-0.3-3.6 3.5 0 4-4.9 5.2-9.3 0.8 -8-8 1.1-8.6 3.2-10.3 0.6-0.5 0.8-1.6 0.7-2.6 -7.9-6.5-15.9-9.9-16-10 -55.5 60-54.2 153.7 4.2 212 31.5 31.5 73.2 46.3 114.4 44.7l-0.1 0c0.7 0.7 1.6 1.9 1.5 2.6 -0.3 2.7-6.3 9.6 5.1 9.5 6.3 0 8.8-4.4 6-7.2 -2.7-2.7-1.2-5.3 0.2-6l-0.2 0c32.2-4 63.5-18.2 88.4-42.6l0 0c1.2-1.2 1.9-1.9 2.4-2.4 0.4-0.4 0.6-0.6 0.6-0.6l0.8-0.9C531.9 526.2 524 522.4 516 515.9z"/>
        <text transform="matrix(0.2858 0.9583 -0.9583 0.2858 282.1107 450.7571)">
            <tspan x="0"    y="0">B</tspan>
            <tspan x="23.7" y="-0.5" rotate="-7.5">I</tspan>
            <tspan x="36.9" y="-2"   rotate="-14.6">P</tspan>
            <tspan x="58.8" y="-7.9" rotate="-23.6">S</tspan>
        </text>
    </g>
    <g class="bepoint" ng-click="beye.selectStatus(1)">
        <path fill="#87A96B" stroke="#000000" stroke-width="2" stroke-miterlimit="10" d="M447.3 322.4l0.1 0c-0.5-0.8-0.2-1.9 0.1-2.6 1.1-2.5 8.8-7.4-2.1-10.6 -6.1-1.8-9.7 1.6-7.8 5.1 1.8 3.4 0.1 5.4-1.4 5.7l0.1 0c-5-0.7-10-1.1-15.2-1.1 -56.3 0-102 45.7-102 102 0 28.6 11.8 54.4 30.7 72.9l-0.1-0.1c0 1-0.1 2.4-0.7 2.9 -2.1 1.6-11.2 2.3-3.2 10.3 4.5 4.5 9.3 3.2 9.3-0.8 0-3.9 2.9-4.4 4.4-3.9l-0.1 0c17.1 13 38.4 20.6 61.5 20.6 56.3 0 102-45.7 102-102C522.9 373.7 490.8 334 447.3 322.4z"/>
        <text transform="matrix(1 0 0 1 363.8072 432.6548)">BIANA</text>
    </g>
</svg>